nRows=35
nColumns=19
inDegrees=yes
endheader
time	ground_force_vx	ground_force_vy	ground_force_vz	ground_force_px	ground_force_py	ground_force_pz	1_ground_force_vx	1_ground_force_vy	1_ground_force_vz	1_ground_force_px	1_ground_force_py	1_ground_force_pz	ground_torque_x	ground_torque_y	ground_torque_z	1_ground_torque_x	1_ground_torque_y	1_ground_torque_z
12.911	-0.188231776166825	1.89122997738	0.126294085596536	0.300000012	0	0.609999999	-0.0581077203626362	0.873492484752656	0.004771574257639	0.300000012	0	0.2050000005	0.286229	-0.088005	-0.286229	0.148654	0.001443	-0.148654
12.912	-0.187193324431396	1.88873291113378	0.127150191846431	0.300000012	0	0.609999999	-0.0581370900992878	0.872932790172741	0.00471447165583585	0.300000012	0	0.2050000005	0.291246	-0.095939	-0.291246	0.159334	0.01082	-0.159334
12.913	-0.18635530921749	1.88637051795621	0.127973136430512	0.300000012	0	0.609999999	-0.058182128940198	0.872703440504542	0.00470919440955505	0.300000012	0	0.2050000005	0.309448	-0.090169	-0.309448	0.16313	0.010099	-0.16313
12.914	-0.18574612421895	1.88418970357247	0.128749780726352	0.300000012	0	0.609999999	-0.0582321489371121	0.872756462571611	0.00475589025626353	0.300000012	0	0.2050000005	0.291366	-0.093775	-0.291366	0.161182	0.009377	-0.161182
12.915	-0.185388726318636	1.88223713002305	0.129468062152899	0.300000012	0	0.609999999	-0.0582779539818039	0.873038718434868	0.00486190047193182	0.300000012	0	0.2050000005	0.286852	-0.095218	-0.286852	0.155482	0.01587	-0.155482
12.916	-0.185300041500879	1.88055786361998	0.130117731841086	0.300000012	0	0.609999999	-0.0583122303053336	0.873494393871157	0.00504138160808151	0.300000012	0	0.2050000005	0.301972	-0.094497	-0.301972	0.155795	0.000721	-0.155795
12.917	-0.185490549623676	1.87919388372583	0.130691045595496	0.300000012	0	0.609999999	-0.0583299051666772	0.874067261176332	0.00531432620101746	0.300000012	0	0.2050000005	0.286246	-0.08584	-0.286246	0.161979	0.005771	-0.161979
12.918	-0.185964060650233	1.87818253789323	0.131183351624841	0.300000012	0	0.609999999	-0.0583284699700829	0.87470265691069	0.00570505810261414	0.300000012	0	0.2050000005	0.294954	-0.098103	-0.294954	0.178731	0.009378	-0.178731
12.919	-0.186717692959264	1.877555043936	0.131593525427303	0.300000012	0	0.609999999	-0.0583082551808411	0.875349150494234	0.00624031424600283	0.300000012	0	0.2050000005	0.289091	-0.094497	-0.289091	0.171832	0.005049	-0.171832
12.92	-0.187742061078861	1.87733514354096	0.131924215152648	0.300000012	0	0.609999999	-0.0582726357088572	0.875959905479363	0.00694705136291562	0.300000012	0	0.2050000005	0.285596	-0.095218	-0.285596	0.149041	0.006492	-0.149041
12.921	-0.189021674565656	1.87753800442589	0.132181877687656	0.300000012	0	0.609999999	-0.0582281394638236	0.876493750394837	0.00785013227194565	0.300000012	0	0.2050000005	0.292184	-0.095939	-0.292184	0.13724	-0.001443	-0.13724
12.922	-0.190535541065905	1.87816944993245	0.132376603731221	0.300000012	0	0.609999999	-0.0581844304800977	0.876915981289066	0.00897005158572445	0.300000012	0	0.2050000005	0.291567	-0.095939	-0.291567	0.147476	0.014427	-0.147476
12.923	-0.192257954799326	1.87922556896057	0.132521746205099	0.300000012	0	0.609999999	-0.0581541421049551	0.877198916384772	0.0103208554999658	0.300000012	0	0.2050000005	0.2951	-0.10171	-0.2951	0.1456	0.008656	-0.1456
12.924	-0.194159437613473	1.88069272904313	0.13263337810832	0.300000012	0	0.609999999	-0.0581525446813175	0.877322218320913	0.0119083957122725	0.300000012	0	0.2050000005	0.280495	-0.095939	-0.280495	0.149372	0.000721	-0.149372
12.925	-0.19620778507485	1.88254798524319	0.132729612290787	0.300000012	0	0.609999999	-0.058197044364834	0.8772729948785	0.013729034763843	0.300000012	0	0.2050000005	0.295292	-0.091611	-0.295292	0.146493	0.011542	-0.146493
12.926	-0.198369157239518	1.88475985099983	0.132829817088477	0.300000012	0	0.609999999	-0.0583065231833665	0.877045687536799	0.0157688906462884	0.300000012	0	0.2050000005	0.297466	-0.091611	-0.297466	0.162279	0.008656	-0.162279
12.927	-0.200609145567432	1.88728937635379	0.132953760173345	0.300000012	0	0.609999999	-0.0585005433493878	0.876641760020804	0.0180036739289186	0.300000012	0	0.2050000005	0.2959	-0.092333	-0.2959	0.14282	0.004328	-0.14282
12.928	-0.202893746396722	1.89009146503036	0.133120710836857	0.300000012	0	0.609999999	-0.0587984499629179	0.87606920607793	0.0203991327037497	0.300000012	0	0.2050000005	0.306414	-0.089447	-0.306414	0.134073	0.007214	-0.134073
12.929	-0.205190178918718	1.89311635452824	0.133348530473792	0.300000012	0	0.609999999	-0.0592184150773792	0.875341905735887	0.0229120814185352	0.300000012	0	0.2050000005	0.285336	-0.08584	-0.285336	0.143536	0.01082	-0.143536
12.93	-0.20746750153083	1.89631118220909	0.133652783329122	0.300000012	0	0.609999999	-0.0597764725889244	0.874478870106028	0.0254919516578843	0.300000012	0	0.2050000005	0.303441	-0.091611	-0.303441	0.135978	0.008656	-0.135978
12.931	-0.209697002895604	1.8996215650425	0.134045904090397	0.300000012	0	0.609999999	-0.0604855976094334	0.873503423874264	0.0280827688867971	0.300000012	0	0.2050000005	0.289031	-0.098103	-0.289031	0.153267	0.004328	-0.153267
12.932	-0.211852369717539	1.90299313079139	0.134536463745783	0.300000012	0	0.609999999	-0.0613548857832705	0.87244237937772	0.0306254318445324	0.300000012	0	0.2050000005	0.284425	-0.094497	-0.284425	0.177859	-0.005049	-0.177859
12.933	-0.21390965820258	1.90637295318835	0.135128577739979	0.300000012	0	0.609999999	-0.0623888870022169	0.871325254324051	0.0330601531257338	0.300000012	0	0.2050000005	0.294615	-0.100267	-0.294615	0.160963	-0.009378	-0.160963
12.934	-0.215847116614186	1.90971086121603	0.135821498589876	0.300000012	0	0.609999999	-0.0635871434908966	0.870183575372571	0.0353289123609343	0.300000012	0	0.2050000005	0.286626	-0.098825	-0.286626	0.151681	0.000721	-0.151681
12.935	-0.217644919512801	1.91296061005987	0.136609427548567	0.300000012	0	0.609999999	-0.0649439735243288	0.869050292148881	0.037377778246198	0.300000012	0	0.2050000005	0.298773	-0.097382	-0.298773	0.154149	0.004328	-0.154149
12.936	-0.21928487893021	1.91608091526163	0.137481566826225	0.300000012	0	0.609999999	-0.0664485286073219	0.867959303038211	0.0391589721914588	0.300000012	0	0.2050000005	0.288993	-0.099546	-0.288993	0.164286	0.002164	-0.164286
12.937	-0.220750194269889	1.91903635912749	0.138422416864569	0.300000012	0	0.609999999	-0.0680851339634625	0.866945069316546	0.0406325728620794	0.300000012	0	0.2050000005	0.310268	-0.098103	-0.310268	0.163257	0.008656	-0.163257
12.938	-0.222025292734511	1.92179817790401	0.139412304755115	0.300000012	0	0.609999999	-0.0698339007575014	0.866042272639351	0.0417677943208237	0.300000012	0	0.2050000005	0.30932	-0.09089	-0.30932	0.146451	0.002885	-0.146451
12.939	-0.223095797702593	1.9243449298091	0.140428112910613	0.300000012	0	0.609999999	-0.0716715756526047	0.865285456953718	0.0425438068083123	0.300000012	0	0.2050000005	0.283313	-0.088005	-0.283313	0.15068	0.010099	-0.15068
12.94	-0.223948645793292	1.92666302976749	0.141444163929094	0.300000012	0	0.609999999	-0.0735725717906616	0.864708592465467	0.0429501040574124	0.300000012	0	0.2050000005	0.288309	-0.09089	-0.288309	0.168506	0.004328	-0.168506
12.941	-0.224572356087682	1.92874712026832	0.142433209661849	0.300000012	0	0.609999999	-0.0755101079870046	0.864344507503958	0.0429864504083907	0.300000012	0	0.2050000005	0.287624	-0.094497	-0.287624	0.155253	-0	-0.155253
12.942	-0.224957438415587	1.93060023350381	0.143367470103592	0.300000012	0	0.609999999	-0.0774573723908475	0.864224153323151	0.0426624618839919	0.300000012	0	0.2050000005	0.275235	-0.092333	-0.275235	0.15957	0.008656	-0.15957
12.943	-0.225096912726575	1.93223369193978	0.144219670161565	0.300000012	0	0.609999999	-0.0793886247244416	0.864375694877928	0.0419968863739872	0.300000012	0	0.2050000005	0.288576	-0.095939	-0.288576	0.156659	0.002886	-0.156659
12.944	-0.224986899054466	1.9336666955793	0.14496402829345	0.300000012	0	0.609999999	-0.0812801579188717	0.864823454067324	0.0410166496229246	0.300000012	0	0.2050000005	0.295722	-0.097382	-0.295722	0.16559	0.006492	-0.16559
12.945	-0.224627228031465	1.93492555556629	0.145577158901982	0.300000012	0	0.609999999	-0.083111054748914	0.865586766596549	0.0397557280247804	0.300000012	0	0.2050000005	0.295168	-0.10171	-0.295168	0.167353	0.011542	-0.167353
